<?xml version="1.0" encoding="utf-8"?>
<!-- Generator: Adobe Illustrator 21.1.0, SVG Export Plug-In . SVG Version: 6.00 Build 0)  -->
<svg version="1.0" id="Capa_1" xmlns="http://www.w3.org/2000/svg" xmlns:xlink="http://www.w3.org/1999/xlink" x="0px" y="0px"
	 viewBox="0 0 1280 720" style="enable-background:new 0 0 1280 720;" xml:space="preserve">
<path d="M153.1,266.1h1.1v1.5h-5.6v-1.5h1.1V265h1.5v-1.5c-0.6,0-1.1-0.2-1.6-0.7s-0.7-1-0.7-1.6c-0.3-0.1-0.6-0.4-0.8-0.8
	s-0.3-0.7-0.5-1.1s-0.2-0.7-0.2-1l0-0.4h7.9l0,0.4c0,0.3-0.1,0.6-0.2,1s-0.3,0.8-0.5,1.1c-0.2,0.4-0.5,0.6-0.8,0.8
	c0,0.6-0.2,1.2-0.7,1.6s-1,0.7-1.6,0.7v1.5h1.5V266.1z M149,258.2h-1.1l0,0.3c0,0.2,0.1,0.5,0.2,0.7s0.2,0.6,0.3,0.9
	s0.3,0.5,0.5,0.7V258.2z M149,266.5v0.8h4.9v-0.8H149z M149.4,261.2c0,0.5,0.2,1,0.6,1.3s0.8,0.6,1.3,0.6h0.4c0.5,0,1-0.2,1.3-0.6
	s0.6-0.8,0.6-1.3v-3h-4.1V261.2z M150.1,265.3v0.8h2.6v-0.8H150.1z M153.9,258.2v2.6c0.2-0.2,0.4-0.4,0.6-0.7s0.2-0.6,0.3-0.9
	s0.1-0.5,0.2-0.7l0-0.3H153.9z"/>
<path d="M305,254.1c-0.3-0.6-0.6-1.1-1.1-1.6s-1-0.8-1.6-1.1c-1.2-0.5-2.7-0.5-3.9,0c-0.6,0.3-1.1,0.6-1.6,1.1s-0.8,1-1.1,1.6
	c-0.3,0.6-0.4,1.2-0.4,1.9s0.1,1.3,0.4,1.9c0.3,0.6,0.6,1.1,1.1,1.6s1,0.8,1.6,1.1c0.6,0.3,1.2,0.4,1.9,0.4s1.3-0.1,1.9-0.4
	c0.6-0.3,1.1-0.6,1.6-1.1s0.8-1,1.1-1.6c0.3-0.6,0.4-1.2,0.4-1.9S305.3,254.7,305,254.1z M300.5,251.9c0.4,0,0.7,0,1.1,0.1
	c0.4,0.1,0.7,0.2,1,0.4c0.3,0.2,0.6,0.4,0.8,0.6c0.2,0.2,0.4,0.4,0.5,0.7c-0.1,0.1-0.2,0.1-0.3,0.2c-0.4,0.1-0.8,0.1-1.1,0
	c-0.2-0.1-0.4-0.2-0.6-0.3c-0.2-0.1-0.5-0.2-0.7-0.3c-0.5-0.2-1.2-0.1-1.8,0.1c-0.3,0.1-0.6,0.3-0.8,0.6s-0.4,0.5-0.6,0.9
	c-0.1,0.3-0.2,0.7-0.2,1s0.1,0.7,0.2,1.1c0.1,0.3,0.3,0.6,0.6,0.8s0.5,0.4,0.9,0.6c0.6,0.2,1.2,0.3,1.8,0.1c0.2-0.1,0.4-0.2,0.6-0.3
	c0.2-0.1,0.3-0.2,0.5-0.3c0.4-0.2,0.8-0.1,1.2,0c0.1,0,0.2,0.1,0.3,0.2c-0.2,0.2-0.3,0.4-0.5,0.6c-0.2,0.2-0.5,0.5-0.8,0.6
	c-0.3,0.2-0.6,0.3-1,0.4c-0.9,0.2-1.9,0.2-2.7-0.2c-0.5-0.2-0.9-0.5-1.3-0.9s-0.7-0.8-0.9-1.3c-0.2-0.5-0.3-1-0.3-1.6
	s0.1-1.1,0.3-1.6c0.2-0.5,0.5-0.9,0.9-1.3s0.8-0.7,1.3-0.9C299.4,252,299.9,251.9,300.5,251.9z M302,257.3c-0.3,0.1-0.5,0.2-0.7,0.3
	c-0.1,0-0.2,0.1-0.3,0.1c-0.2,0-0.3,0.1-0.5,0.1c-0.5,0-0.9-0.2-1.3-0.5s-0.5-0.8-0.5-1.3s0.2-0.9,0.5-1.3s0.8-0.5,1.3-0.5
	c0.2,0,0.3,0,0.4,0c0.1,0,0.3,0.1,0.4,0.2c0.2,0.1,0.4,0.2,0.7,0.3c0.6,0.3,1.2,0.3,1.8,0.1c0.2-0.1,0.3-0.1,0.5-0.2
	c0.1,0.2,0.1,0.4,0.2,0.5c0.1,0.3,0.1,0.6,0.1,0.9s0,0.6-0.1,0.9c0,0.2-0.1,0.4-0.2,0.5c-0.1-0.1-0.3-0.2-0.5-0.2
	C303.2,257,302.6,257,302,257.3z"/>
<path d="M286.6,251.9c0-0.1-0.1-0.1-0.2-0.1h-9.9c-0.1,0-0.1,0-0.2,0.1c0,0.1-0.1,0.1-0.1,0.2l0,0.5c0,0.3,0.1,0.7,0.2,1.1
	c0.1,0.4,0.3,0.8,0.5,1.2c0.2,0.3,0.8,0.5,1.5,0.7c0.1,0,0.2,0.1,0.3,0.1c0,0.6,0.3,1.2,0.7,1.6c0.4,0.4,0.9,0.7,1.5,0.7v1.4h-1.2
	c-0.1,0-0.2,0.1-0.2,0.2v0.4c0,0.1,0.1,0.2,0.2,0.2h3.4c0.1,0,0.2-0.1,0.2-0.2v-0.4c0-0.1-0.1-0.2-0.2-0.2h-1.2v-1.4
	c0.6-0.1,1.1-0.3,1.5-0.7c0.4-0.4,0.7-1,0.7-1.6c0.1,0,0.2-0.1,0.3-0.1c0.7-0.2,1.3-0.4,1.5-0.7c0.2-0.4,0.4-0.8,0.5-1.2
	c0.1-0.4,0.2-0.8,0.2-1.1l0-0.4C286.7,252,286.6,251.9,286.6,251.9z M278.8,252.7v2c-0.1,0-0.1,0-0.2-0.1c-0.2-0.1-0.8-0.2-0.8-0.3
	c-0.1-0.3-0.2-0.6-0.3-0.8c-0.1-0.3-0.1-0.5-0.2-0.7l0,0H278.8z M281.6,257.1h-0.4c-0.5,0-0.8-0.2-1.1-0.5s-0.5-0.7-0.5-1.1v-2.8
	h3.6v2.8c0,0.5-0.2,0.8-0.5,1.1S282.1,257.1,281.6,257.1z M285.7,252.7L285.7,252.7c0,0.2-0.1,0.5-0.2,0.7c-0.1,0.3-0.2,0.5-0.3,0.8
	c-0.1,0.1-0.6,0.3-0.9,0.3c-0.1,0-0.2,0-0.2,0.1v-2H285.7z"/>
<path d="M325.3,257.8c0.5,0,1,0.1,1.3,0.3s0.5,0.5,0.5,0.8c0,0.1-0.2,0.3-0.5,0.4s-0.8,0.2-1.3,0.2c-0.1,0-0.3,0-0.4,0s-0.3,0-0.4,0
	c0,0,0,0,0,0.1s0,0,0,0.1c0,0.1-0.1,0.2-0.2,0.4c-0.2,0.1-0.4,0.2-0.7,0.3s-0.6,0.2-1,0.2c-0.4,0.1-0.8,0.1-1.3,0.1
	c-1,0-1.8-0.1-2.4-0.3s-0.9-0.4-0.9-0.7c0,0,0,0,0-0.1s0,0,0-0.1c-0.1,0-0.2,0-0.4,0s-0.3,0-0.4,0c-0.5,0-1-0.1-1.3-0.2
	s-0.5-0.2-0.5-0.4c0-0.3,0.2-0.5,0.5-0.8s0.7-0.3,1.3-0.3c0.3,0,0.6,0,0.9,0.1s0.4,0.2,0.6,0.4c0.3-0.2,0.6-0.4,1-0.6
	s0.9-0.2,1.5-0.2c0.6,0,1,0.1,1.5,0.2s0.8,0.3,1.1,0.6c0.1-0.1,0.3-0.3,0.6-0.3S324.9,257.8,325.3,257.8z M316.4,257.1
	c-0.2-0.2-0.4-0.5-0.4-0.9s0.1-0.6,0.4-0.9s0.5-0.4,0.9-0.4c0.3,0,0.6,0.1,0.9,0.4s0.4,0.5,0.4,0.9s-0.1,0.6-0.4,0.9
	s-0.5,0.4-0.9,0.4C316.9,257.5,316.6,257.3,316.4,257.1z M317.3,258.9c0.2,0,0.4,0,0.6,0s0.3,0,0.4-0.1c0,0,0-0.1,0.1-0.1
	s0-0.1,0.1-0.1c-0.1-0.1-0.2-0.2-0.4-0.2s-0.4-0.1-0.7-0.1c-0.4,0-0.6,0.1-0.8,0.2s-0.3,0.2-0.4,0.3c0.1,0,0.2,0.1,0.4,0.1
	S316.9,258.9,317.3,258.9z M317.3,255.5c-0.2,0-0.4,0.1-0.5,0.2s-0.2,0.3-0.2,0.5c0,0.2,0.1,0.4,0.2,0.5s0.3,0.2,0.5,0.2
	c0.2,0,0.4-0.1,0.5-0.2s0.2-0.3,0.2-0.5c0-0.2-0.1-0.4-0.2-0.5S317.5,255.5,317.3,255.5z M320.3,256.8c-0.3-0.1-0.6-0.3-0.8-0.5
	s-0.4-0.5-0.5-0.8c-0.1-0.3-0.2-0.6-0.2-1c0-0.3,0.1-0.7,0.2-1c0.1-0.3,0.3-0.6,0.5-0.8s0.5-0.4,0.8-0.5s0.6-0.2,1-0.2
	s0.7,0.1,1,0.2s0.6,0.3,0.8,0.5s0.4,0.5,0.5,0.8c0.1,0.3,0.2,0.6,0.2,1c0,0.4-0.1,0.7-0.2,1c-0.1,0.3-0.3,0.6-0.5,0.8
	s-0.5,0.4-0.8,0.5s-0.6,0.2-1,0.2S320.6,256.9,320.3,256.8z M321.3,259.5c0.5,0,0.9,0,1.3-0.1s0.6-0.1,0.8-0.2
	c-0.1-0.2-0.4-0.3-0.7-0.5s-0.8-0.2-1.3-0.2c-0.6,0-1,0.1-1.4,0.2s-0.6,0.3-0.7,0.5c0.2,0.1,0.4,0.1,0.8,0.2
	S320.7,259.5,321.3,259.5z M320.2,253.4c-0.3,0.3-0.4,0.6-0.4,1.1s0.1,0.8,0.4,1.1s0.6,0.4,1.1,0.4s0.8-0.1,1.1-0.4s0.4-0.6,0.4-1.1
	s-0.1-0.8-0.4-1.1s-0.6-0.4-1.1-0.4S320.5,253.1,320.2,253.4z M324.4,257.1c-0.2-0.2-0.4-0.5-0.4-0.9c0-0.4,0.1-0.6,0.4-0.9
	s0.5-0.4,0.9-0.4c0.4,0,0.6,0.1,0.9,0.4s0.4,0.5,0.4,0.9c0,0.3-0.1,0.6-0.4,0.9s-0.5,0.4-0.9,0.4
	C324.9,257.5,324.6,257.3,324.4,257.1z M325.3,258.9c0.3,0,0.6,0,0.8-0.1s0.3-0.1,0.5-0.1c-0.1-0.1-0.2-0.2-0.4-0.3
	s-0.5-0.2-0.8-0.2c-0.3,0-0.5,0-0.7,0.1s-0.3,0.1-0.4,0.2c0,0,0,0.1,0.1,0.1s0,0.1,0.1,0.1c0.1,0,0.2,0.1,0.4,0.1
	S325,258.9,325.3,258.9z M325.3,255.5c-0.2,0-0.4,0.1-0.5,0.2s-0.2,0.3-0.2,0.5c0,0.2,0.1,0.4,0.2,0.5s0.3,0.2,0.5,0.2
	c0.2,0,0.4-0.1,0.5-0.2s0.2-0.3,0.2-0.5c0-0.2-0.1-0.4-0.2-0.5S325.5,255.5,325.3,255.5z"/>
<path d="M347.3,255.4v0.3c0,0.4,0,0.7-0.1,1.1s-0.2,0.7-0.4,1c-0.2,0.4-0.5,0.8-0.8,1.1c-0.3,0.3-0.6,0.6-1,0.8s-0.8,0.4-1.2,0.5
	c-0.4,0.1-0.9,0.2-1.3,0.2c-0.3,0-0.7,0-1-0.1s-0.6-0.2-0.9-0.3l-2.6,0.9c0,0,0,0-0.1,0s-0.1,0-0.1,0c-0.1,0-0.1,0-0.2,0
	s-0.1-0.1-0.2-0.1c-0.1,0-0.1-0.1-0.1-0.2s0-0.2,0-0.3l0.9-2.7c-0.1-0.3-0.2-0.6-0.3-0.9s-0.1-0.7-0.1-1c0-0.5,0.1-0.9,0.2-1.3
	c0.1-0.4,0.3-0.8,0.5-1.2s0.5-0.7,0.8-1s0.7-0.5,1.1-0.8c0.3-0.2,0.7-0.3,1-0.4s0.7-0.1,1.1-0.1h0.3c0.6,0,1.2,0.2,1.7,0.4
	s1,0.6,1.4,1s0.7,0.9,1,1.4C347.1,254.2,347.2,254.8,347.3,255.4z M346.3,255.7v-0.2c0-0.5-0.1-0.9-0.4-1.3
	c-0.2-0.4-0.5-0.8-0.8-1.1s-0.7-0.6-1.1-0.8c-0.4-0.2-0.9-0.3-1.3-0.3h-0.2c-0.3,0-0.6,0-0.8,0.1s-0.6,0.2-0.8,0.3
	c-0.3,0.2-0.6,0.4-0.9,0.6s-0.5,0.5-0.7,0.8s-0.3,0.6-0.4,0.9c-0.1,0.3-0.2,0.7-0.2,1c0,0.3,0,0.6,0.1,0.8s0.2,0.6,0.3,0.8
	c0.1,0.1,0.1,0.1,0.1,0.2s0,0.1,0,0.2l-0.7,1.9l1.9-0.6c0.1,0,0.2,0,0.2,0s0.1,0,0.2,0c0.2,0.1,0.5,0.2,0.8,0.3s0.6,0.1,0.9,0.1
	c0.4,0,0.7,0,1-0.1c0.3-0.1,0.6-0.2,0.9-0.4s0.6-0.4,0.8-0.7c0.2-0.2,0.4-0.5,0.6-0.9c0.1-0.3,0.2-0.6,0.3-0.8
	S346.3,256,346.3,255.7z"/>
<path d="M216.6,258.6c0.2,0,0.3,0.1,0.5,0.2s0.2,0.3,0.2,0.5v1.3c0,0.3,0,0.6-0.1,0.9c-0.1,0.3-0.2,0.6-0.5,0.9s-0.5,0.5-0.8,0.7
	c-0.3,0.2-0.8,0.3-1.2,0.3h-0.3c-0.2,0.5-0.5,0.9-1,1.3s-0.9,0.6-1.4,0.7v1.4h0.7c0.4,0,0.7,0.1,0.9,0.4s0.4,0.6,0.4,0.9h-5.3
	c0-0.4,0.1-0.7,0.4-0.9s0.6-0.4,0.9-0.4h0.7v-1.4c-0.5-0.1-1-0.3-1.4-0.7s-0.7-0.8-1-1.3h-0.3c-0.5,0-0.9-0.1-1.2-0.3
	c-0.3-0.2-0.6-0.4-0.8-0.7s-0.4-0.6-0.5-0.9c-0.1-0.3-0.1-0.6-0.1-0.9v-1.3c0-0.2,0.1-0.3,0.2-0.5s0.3-0.2,0.5-0.2h2V258
	c0-0.2,0.1-0.3,0.2-0.5s0.3-0.2,0.5-0.2h5.3c0.2,0,0.3,0.1,0.5,0.2s0.2,0.3,0.2,0.5v0.7H216.6z M207.9,260h-1.3v0.7
	c0,0.2,0.1,0.4,0.2,0.8s0.5,0.6,1.1,0.6V260z M207.9,263.3C207.9,263.3,207.9,263.3,207.9,263.3L207.9,263.3L207.9,263.3
	L207.9,263.3z M213.3,262.4v-3.8h-4v3.8l0.2,0.4c0.2,0.4,0.4,0.7,0.7,0.9s0.7,0.3,1.1,0.3s0.8-0.1,1.1-0.3s0.6-0.5,0.7-0.9
	L213.3,262.4z M215.9,260.6V260h-1.3v2c0.6,0,1-0.2,1.1-0.6S215.9,260.7,215.9,260.6z M214.6,263.3L214.6,263.3L214.6,263.3
	C214.6,263.3,214.6,263.3,214.6,263.3L214.6,263.3z"/>
<path d="M227,261.3c0.5,0.2,0.9,0.5,1.1,0.9s0.4,0.9,0.4,1.4v1c0,0.1-0.1,0.3-0.2,0.4s-0.3,0.2-0.4,0.2h-2.3
	c0.1,0.2,0.1,0.3,0.2,0.5s0.1,0.3,0.1,0.5v1c0,0.1-0.1,0.3-0.2,0.4s-0.3,0.2-0.4,0.2h-6.8c-0.1,0-0.3-0.1-0.4-0.2s-0.2-0.3-0.2-0.4
	v-1c0-0.5,0.1-0.9,0.4-1.4s0.7-0.7,1.1-0.9h0.1c-0.1-0.2-0.2-0.4-0.3-0.6s-0.1-0.5-0.1-0.7c0-0.4,0.1-0.7,0.2-1
	c0.1-0.3,0.3-0.6,0.6-0.8s0.5-0.4,0.9-0.6c0.3-0.1,0.7-0.2,1-0.2c0-0.4,0.1-0.7,0.2-1c0.1-0.3,0.3-0.6,0.6-0.8s0.5-0.4,0.8-0.6
	c0.3-0.1,0.7-0.2,1-0.2s0.7,0.1,1,0.2c0.3,0.1,0.6,0.3,0.9,0.6s0.4,0.5,0.6,0.8c0.1,0.3,0.2,0.7,0.2,1c0,0.2,0,0.5-0.1,0.7
	S227,261.1,227,261.3L227,261.3z M224.6,266.3c0-0.2-0.1-0.4-0.2-0.5s-0.3-0.3-0.4-0.5h-4.1c-0.2,0.1-0.3,0.3-0.4,0.5
	s-0.2,0.4-0.2,0.5v0.4h5.3V266.3z M221.9,261.3c-0.4,0-0.7,0.1-0.9,0.4s-0.4,0.6-0.4,0.9c0,0,0,0.1,0,0.1s0,0.1,0,0.1
	c0.1,0.3,0.2,0.6,0.5,0.8s0.5,0.3,0.9,0.3c0.4,0,0.7-0.1,0.9-0.4s0.4-0.6,0.4-0.9s-0.1-0.7-0.4-0.9S222.3,261.3,221.9,261.3z
	 M224.6,258.6c-0.4,0-0.7,0.1-0.9,0.4s-0.4,0.6-0.4,0.9c0,0.1,0,0.1,0,0.2s0,0.1,0.1,0.2c0.2,0.1,0.3,0.2,0.5,0.4s0.3,0.3,0.4,0.5
	c0.1,0,0.1,0,0.2,0.1s0.1,0,0.2,0c0.4,0,0.7-0.1,0.9-0.4s0.4-0.6,0.4-0.9s-0.1-0.7-0.4-0.9S225,258.6,224.6,258.6z M227.3,264v-0.4
	c0-0.2-0.1-0.4-0.2-0.5s-0.3-0.3-0.4-0.4h-2.1c0,0.2,0,0.5-0.1,0.7s-0.2,0.4-0.3,0.6H227.3z"/>
<path d="M265.5,254.4c0.1,0,0.1,0.1,0.1,0.2c0,0.1,0,0.1,0,0.2v4.8c0,0.4-0.1,0.7-0.4,0.9s-0.6,0.4-0.9,0.4h-6.1
	c-0.4,0-0.7-0.1-0.9-0.4s-0.4-0.6-0.4-0.9v-4.8c0-0.1,0-0.1,0-0.2c0-0.1,0.1-0.1,0.1-0.2l3.9-3c0.1-0.1,0.2-0.1,0.2-0.1
	c0.1,0,0.2,0,0.3,0.1L265.5,254.4z M264.8,259.5v-4.6l-3.5-2.7l-3.5,2.7v4.6c0,0.1,0,0.2,0.1,0.3s0.2,0.1,0.3,0.1h1.3V256
	c0-0.1,0-0.2,0.1-0.3c0.1-0.1,0.2-0.1,0.3-0.1h2.6c0.1,0,0.2,0,0.3,0.1c0.1,0.1,0.1,0.2,0.1,0.3v3.9h1.3c0.1,0,0.2,0,0.3-0.1
	C264.8,259.7,264.8,259.6,264.8,259.5z M262.2,256.4h-1.7v3.5h1.7V256.4z"/>
<path d="M155.3,289.8c0,0.6-0.1,1.2-0.4,1.8s-0.7,1-1.2,1.3l0.6,4.3c0,0.1,0,0.2-0.1,0.3s-0.1,0.2-0.1,0.2c0,0-0.1,0-0.1,0.1
	s-0.1,0-0.1,0c0,0-0.1,0-0.1,0s-0.1,0-0.1,0l-2.2-1.3l-2.2,1.3c-0.1,0-0.2,0.1-0.3,0.1s-0.2,0-0.3-0.1s-0.1-0.1-0.2-0.2s0-0.2,0-0.3
	l0.6-4.3c-0.5-0.3-0.9-0.8-1.1-1.3s-0.4-1.2-0.4-1.8c0-0.6,0.1-1.1,0.3-1.6s0.5-0.9,0.9-1.3s0.8-0.7,1.3-0.9c0.5-0.2,1-0.3,1.6-0.3
	s1.1,0.1,1.6,0.3c0.5,0.2,0.9,0.5,1.3,0.9s0.6,0.8,0.9,1.3S155.3,289.2,155.3,289.8z M148.5,290.9c0.2,0.4,0.4,0.7,0.6,1
	s0.6,0.5,1,0.6c0.4,0.2,0.7,0.2,1.2,0.2s0.8-0.1,1.2-0.2c0.4-0.2,0.7-0.4,1-0.6s0.5-0.6,0.6-1s0.2-0.8,0.2-1.2
	c0-0.4-0.1-0.8-0.2-1.2c-0.2-0.4-0.4-0.7-0.6-0.9s-0.6-0.5-1-0.6c-0.4-0.2-0.7-0.2-1.2-0.2s-0.8,0.1-1.2,0.2c-0.4,0.2-0.7,0.4-1,0.6
	s-0.5,0.6-0.6,0.9c-0.2,0.4-0.2,0.8-0.2,1.2C148.3,290.2,148.4,290.6,148.5,290.9z M153.1,296.3l-0.4-2.9c-0.2,0.1-0.5,0.2-0.7,0.2
	s-0.5,0.1-0.8,0.1s-0.5,0-0.8-0.1s-0.5-0.1-0.7-0.2l-0.4,2.9l1.6-0.9c0.1-0.1,0.2-0.1,0.2-0.1s0.2,0,0.2,0.1L153.1,296.3z"/>
<path d="M168.3,293.8c0.1,0,0.3,0,0.4,0.1s0.1,0.2,0.1,0.4c0,0.1,0,0.3-0.1,0.4s-0.2,0.1-0.4,0.1h-10c-0.1,0-0.3,0-0.4-0.1
	s-0.1-0.2-0.1-0.4c0-0.2,0-0.3,0.1-0.4s0.2-0.1,0.4-0.1c0.3,0,0.5-0.1,0.7-0.3s0.3-0.4,0.3-0.7v-2.5c0-0.5,0.1-1.1,0.3-1.5
	s0.5-0.9,0.9-1.3s0.8-0.7,1.3-0.9c0.5-0.2,1-0.3,1.6-0.3s1.1,0.1,1.6,0.3c0.5,0.2,0.9,0.5,1.3,0.9s0.6,0.8,0.9,1.3s0.3,1,0.3,1.5
	v2.5c0,0.3,0.1,0.5,0.3,0.7S168,293.8,168.3,293.8z M160,293.8h6.5c-0.1-0.1-0.1-0.3-0.2-0.5s-0.1-0.3-0.1-0.5v-2.5
	c0-0.4-0.1-0.8-0.2-1.2s-0.4-0.7-0.6-1s-0.6-0.5-1-0.6c-0.4-0.2-0.7-0.2-1.2-0.2s-0.8,0.1-1.2,0.2c-0.4,0.2-0.7,0.4-1,0.6
	s-0.5,0.6-0.6,1s-0.2,0.8-0.2,1.2v2.5c0,0.2,0,0.3-0.1,0.5S160.1,293.6,160,293.8z M164.6,296.1c0,0.1,0,0.3-0.1,0.4
	c-0.1,0.2-0.3,0.4-0.6,0.6s-0.5,0.2-0.7,0.2c-0.1,0-0.2,0-0.4,0s-0.2-0.1-0.4-0.2c-0.1-0.1-0.2-0.2-0.3-0.2s-0.2-0.2-0.2-0.3
	c-0.1-0.1-0.1-0.3,0-0.4s0.1-0.2,0.2-0.3c0.1,0,0.3-0.1,0.4,0s0.2,0.1,0.3,0.2c0,0,0.1,0.1,0.1,0.1s0.1,0.1,0.1,0.1
	c0.1,0,0.3,0.1,0.4,0s0.2-0.1,0.3-0.2c0.1-0.1,0.2-0.2,0.3-0.3s0.3,0,0.4,0.1S164.6,296,164.6,296.1z"/>
<path d="M181.2,288.6C181.2,288.6,181.3,288.6,181.2,288.6c0,0.1,0,0.2,0,0.2v3c0,0.2,0,0.3-0.1,0.4s-0.2,0.1-0.4,0.1
	c-0.1,0-0.3,0-0.4-0.1s-0.1-0.2-0.1-0.4V290l-3.9,3.9c-0.1,0.1-0.2,0.1-0.4,0.1s-0.2,0-0.4-0.1l-2.1-2.2l-3.4,3.4
	c-0.1,0.1-0.1,0.1-0.2,0.1s-0.1,0-0.2,0c-0.1,0-0.1,0-0.2,0s-0.1-0.1-0.2-0.1c-0.1-0.1-0.2-0.2-0.2-0.4s0.1-0.2,0.2-0.4l3.8-3.8
	c0.1-0.1,0.2-0.1,0.4-0.1s0.2,0,0.4,0.1l2.1,2.2l3.6-3.6h-1.8c-0.1,0-0.3,0-0.4-0.1s-0.1-0.2-0.1-0.4c0-0.1,0-0.3,0.1-0.4
	s0.2-0.1,0.4-0.1h3c0,0,0.1,0,0.1,0s0.1,0,0.1,0c0.1,0,0.1,0.1,0.2,0.1S181.2,288.5,181.2,288.6z"/>
</svg>
